<svg xmlns="http://www.w3.org/2000/svg" viewBox="0 0 512 512" fill="none">
  <!-- Ethereum Classic logo — canonical paths from ETCswap -->
  <!-- Usage: embed with <image> or copy the <g> and apply your own fill/transform -->
  <g transform="translate(0,512) scale(0.1,-0.1)" fill="currentColor" stroke="none">
    <!-- Top section -->
    <path d="M2551 5071 c-6 -11 -125 -193 -263 -403 -138 -211 -340 -518 -448
-683 -108 -165 -321 -490 -474 -723 -153 -233 -276 -425 -274 -427 1 -1 154
61 338 139 884 374 1126 476 1137 476 7 0 330 -142 719 -316 388 -173 708
-314 710 -312 3 3 -1417 2253 -1430 2266 -3 2 -9 -6 -15 -17z"/>
    <!-- Middle band -->
    <path d="M2485 3110 c-376 -157 -1450 -612 -1452 -614 -2 -2 99 -60 224 -130
126 -69 473 -263 773 -430 l545 -303 40 23 c22 12 357 200 745 418 387 217
706 399 708 405 2 6 -1 11 -7 11 -10 0 -175 73 -1036 457 -203 91 -388 173
-410 183 l-41 18 -89 -38z"/>
    <!-- Bottom section -->
    <path d="M1119 2083 c16 -21 308 -427 648 -903 341 -476 661 -923 712 -994 51
-70 95 -135 98 -143 4 -10 10 -6 23 15 10 16 145 206 301 423 155 217 378 527
494 689 116 162 316 441 444 619 206 287 253 359 209 324 -7 -6 -343 -198
-746 -427 l-732 -417 -128 74 c-1304 758 -1336 777 -1346 777 -4 0 6 -17 23
-37z"/>
  </g>
</svg>
