<svg xmlns="http://www.w3.org/2000/svg" viewBox="0 0 512 512" fill="none">
  <defs>
    <radialGradient id="torchGlow" cx="50%" cy="42%" r="35%">
      <stop offset="0%" stop-color="#ffffff" stop-opacity="0.25"/>
      <stop offset="70%" stop-color="#ffffff" stop-opacity="0.06"/>
      <stop offset="100%" stop-color="#ffffff" stop-opacity="0"/>
    </radialGradient>
    <radialGradient id="badgeFill" cx="50%" cy="45%" r="50%">
      <stop offset="0%" stop-color="#1a1a1a"/>
      <stop offset="100%" stop-color="#111111"/>
    </radialGradient>
    <linearGradient id="flameGrad" x1="50%" y1="100%" x2="50%" y2="0%">
      <stop offset="0%" stop-color="#ffffff"/>
      <stop offset="100%" stop-color="#ffffff"/>
    </linearGradient>
    <linearGradient id="flameInner" x1="50%" y1="100%" x2="50%" y2="0%">
      <stop offset="0%" stop-color="#ffffff"/>
      <stop offset="100%" stop-color="#ffffff"/>
    </linearGradient>
    <radialGradient id="ringGlow" cx="50%" cy="50%" r="50%">
      <stop offset="90%" stop-color="#ffffff" stop-opacity="0"/>
      <stop offset="96%" stop-color="#ffffff" stop-opacity="0.4"/>
      <stop offset="100%" stop-color="#ffffff" stop-opacity="0.12"/>
    </radialGradient>
  </defs>

  <circle cx="256" cy="256" r="250" fill="url(#ringGlow)"/>
  <circle cx="256" cy="256" r="235" fill="url(#badgeFill)"/>
  <circle cx="256" cy="256" r="235" stroke="#ffffff" stroke-width="2" stroke-opacity="0.15"/>
  <circle cx="256" cy="256" r="210" stroke="#333333" stroke-width="3" stroke-opacity="0.6"/>
  <ellipse cx="256" cy="230" rx="140" ry="170" fill="url(#torchGlow)"/>

  <path d="M 256 80 C 248 95, 230 115, 225 135 C 218 160, 210 170, 200 175 C 190 182, 195 165, 200 148 C 195 158, 185 175, 185 190 C 185 205, 195 218, 200 225 C 205 232, 210 238, 215 245 L 215 250 L 297 250 L 297 245 C 302 238, 306 232, 310 222 C 318 208, 322 190, 316 172 C 312 158, 300 140, 295 128 C 290 115, 285 108, 282 100 C 278 90, 268 82, 256 80 Z" fill="url(#flameGrad)" fill-opacity="0.35"/>
  <path d="M 256 95 C 250 108, 240 125, 234 142 C 228 162, 222 178, 220 192 C 218 206, 222 220, 228 232 C 232 238, 236 244, 240 250 L 272 250 C 276 244, 280 238, 284 230 C 290 218, 294 205, 292 188 C 290 172, 282 155, 275 140 C 270 128, 264 112, 256 95 Z" fill="url(#flameGrad)" fill-opacity="0.55"/>
  <path d="M 240 115 C 232 130, 218 148, 212 158 C 205 170, 208 155, 215 140 C 220 128, 232 112, 240 100 Z" fill="#ffffff" fill-opacity="0.2"/>
  <path d="M 268 108 C 278 125, 295 145, 300 160 C 305 172, 300 162, 290 148 C 280 135, 272 118, 268 108 Z" fill="#ffffff" fill-opacity="0.15"/>
  <path d="M 256 115 C 252 130, 245 150, 242 170 C 240 188, 242 205, 246 220 C 248 228, 250 240, 252 250 L 260 250 C 262 240, 264 228, 266 220 C 270 205, 272 188, 270 170 C 268 150, 262 132, 256 115 Z" fill="url(#flameInner)" fill-opacity="0.8"/>
  <path d="M 256 90 C 253 100, 250 115, 249 130 C 248 142, 250 138, 253 125 C 255 115, 257 105, 256 90 Z" fill="#ffffff" fill-opacity="0.4"/>

  <path d="M 210 250 C 210 248, 212 246, 218 246 L 294 246 C 300 246, 302 248, 302 250 L 298 262 C 296 266, 290 268, 284 268 L 228 268 C 222 268, 216 266, 214 262 Z" fill="#ffffff"/>
  <path d="M 218 248 L 294 248 L 292 254 L 220 254 Z" fill="#ffffff" fill-opacity="0.3"/>

  <path d="M 232 268 L 230 380 C 230 386, 234 390, 240 392 L 272 392 C 278 390, 282 386, 282 380 L 280 268 Z" fill="#ffffff" fill-opacity="0.9"/>
  <path d="M 234 270 L 233 378 C 233 382, 235 384, 238 385 L 240 385 L 242 270 Z" fill="#ffffff" fill-opacity="0.15"/>

  <g transform="translate(234.2, 300) scale(0.085)">
    <g transform="translate(0,512) scale(0.1,-0.1)" fill="#111111" stroke="none">
      <path d="M2551 5071 c-6 -11 -125 -193 -263 -403 -138 -211 -340 -518 -448 -683 -108 -165 -321 -490 -474 -723 -153 -233 -276 -425 -274 -427 1 -1 154 61 338 139 884 374 1126 476 1137 476 7 0 330 -142 719 -316 388 -173 708 -314 710 -312 3 3 -1417 2253 -1430 2266 -3 2 -9 -6 -15 -17z"/>
      <path d="M2485 3110 c-376 -157 -1450 -612 -1452 -614 -2 -2 99 -60 224 -130 126 -69 473 -263 773 -430 l545 -303 40 23 c22 12 357 200 745 418 387 217 706 399 708 405 2 6 -1 11 -7 11 -10 0 -175 73 -1036 457 -203 91 -388 173 -410 183 l-41 18 -89 -38z"/>
      <path d="M1119 2083 c16 -21 308 -427 648 -903 341 -476 661 -923 712 -994 51 -70 95 -135 98 -143 4 -10 10 -6 23 15 10 16 145 206 301 423 155 217 378 527 494 689 116 162 316 441 444 619 206 287 253 359 209 324 -7 -6 -343 -198 -746 -427 l-732 -417 -128 74 c-1304 758 -1336 777 -1346 777 -4 0 6 -17 23 -37z"/>
    </g>
  </g>

  <path d="M 240 390 L 256 405 L 272 390 Z" fill="#ffffff" fill-opacity="0.7"/>
</svg>
