<svg width="1200" height="630" viewBox="0 0 1200 630" fill="none" xmlns="http://www.w3.org/2000/svg">
  <defs>
    <radialGradient id="bgGlow" cx="20%" cy="30%" r="80%">
      <stop offset="0%" stop-color="#162820"/>
      <stop offset="100%" stop-color="#0e1614"/>
    </radialGradient>
    <radialGradient id="bgGlow2" cx="85%" cy="70%" r="50%">
      <stop offset="0%" stop-color="#122018" stop-opacity="0.8"/>
      <stop offset="100%" stop-color="#0e1614" stop-opacity="0"/>
    </radialGradient>
    <linearGradient id="btnGrad" x1="0%" y1="0%" x2="100%" y2="0%">
      <stop offset="0%" stop-color="#00ffae"/>
      <stop offset="100%" stop-color="#00cc8a"/>
    </linearGradient>
  </defs>

  <!-- Background layers -->
  <rect width="1200" height="630" fill="#0e1614"/>
  <rect width="1200" height="630" fill="url(#bgGlow)"/>
  <rect width="1200" height="630" fill="url(#bgGlow2)"/>

  <!-- Circuit-trace corner accents (primary) -->
  <path d="M0 100 L0 0 L100 0" fill="none" stroke="#00ffae" stroke-width="1.5" stroke-opacity="0.25"/>
  <path d="M0 100 Q0 50 50 50 L160 50" fill="none" stroke="#00ffae" stroke-width="1" stroke-opacity="0.15"/>
  <path d="M1100 0 L1200 0 L1200 100" fill="none" stroke="#00ffae" stroke-width="1.5" stroke-opacity="0.25"/>
  <path d="M1040 50 L1150 50 Q1200 50 1200 100" fill="none" stroke="#00ffae" stroke-width="1" stroke-opacity="0.15"/>
  <path d="M0 530 L0 630 L100 630" fill="none" stroke="#00ffae" stroke-width="1.5" stroke-opacity="0.18"/>
  <path d="M1100 630 L1200 630 L1200 530" fill="none" stroke="#00ffae" stroke-width="1.5" stroke-opacity="0.18"/>

  <!-- Additional circuit traces for depth -->
  <path d="M0 200 L0 160 L40 160" fill="none" stroke="#00ffae" stroke-width="1" stroke-opacity="0.1"/>
  <path d="M1200 200 L1200 160 L1160 160" fill="none" stroke="#00ffae" stroke-width="1" stroke-opacity="0.1"/>
  <path d="M60 0 L60 30 Q60 50 80 50" fill="none" stroke="#00ffae" stroke-width="0.75" stroke-opacity="0.09"/>
  <path d="M1140 0 L1140 30 Q1140 50 1120 50" fill="none" stroke="#00ffae" stroke-width="0.75" stroke-opacity="0.09"/>
  <path d="M0 400 L30 400 Q50 400 50 420 L50 460" fill="none" stroke="#00ffae" stroke-width="0.75" stroke-opacity="0.08"/>
  <path d="M1200 400 L1170 400 Q1150 400 1150 420 L1150 460" fill="none" stroke="#00ffae" stroke-width="0.75" stroke-opacity="0.08"/>
  <line x1="160" y1="50" x2="260" y2="50" stroke="#00ffae" stroke-width="0.5" stroke-opacity="0.07"/>
  <line x1="940" y1="50" x2="1040" y2="50" stroke="#00ffae" stroke-width="0.5" stroke-opacity="0.07"/>
  <path d="M1100 530 L1100 580 Q1100 600 1080 600 L1020 600" fill="none" stroke="#00ffae" stroke-width="0.75" stroke-opacity="0.08"/>
  <path d="M100 630 L100 600 Q100 580 120 580 L180 580" fill="none" stroke="#00ffae" stroke-width="0.75" stroke-opacity="0.08"/>

  <!-- Horizontal accent lines -->
  <line x1="100" y1="330" x2="500" y2="330" stroke="#00ffae" stroke-width="1" stroke-opacity="0.12"/>
  <line x1="700" y1="500" x2="1100" y2="500" stroke="#00ffae" stroke-width="0.5" stroke-opacity="0.07"/>

  <!-- Logo: ETC Diamond in rounded container -->
  <g transform="translate(100, 125)">
    <rect x="0" y="0" width="130" height="130" rx="20" fill="#132a1e" stroke="#00ffae" stroke-width="1.5" stroke-opacity="0.35"/>
    <g transform="translate(25, 15) scale(0.195)">
      <g transform="translate(0,512) scale(0.1,-0.1)" fill="#00ffae" stroke="none">
        <path d="M2551 5071 c-6 -11 -125 -193 -263 -403 -138 -211 -340 -518 -448 -683 -108 -165 -321 -490 -474 -723 -153 -233 -276 -425 -274 -427 1 -1 154 61 338 139 884 374 1126 476 1137 476 7 0 330 -142 719 -316 388 -173 708 -314 710 -312 3 3 -1417 2253 -1430 2266 -3 2 -9 -6 -15 -17z"/>
        <path d="M2485 3110 c-376 -157 -1450 -612 -1452 -614 -2 -2 99 -60 224 -130 126 -69 473 -263 773 -430 l545 -303 40 23 c22 12 357 200 745 418 387 217 706 399 708 405 2 6 -1 11 -7 11 -10 0 -175 73 -1036 457 -203 91 -388 173 -410 183 l-41 18 -89 -38z"/>
        <path d="M1119 2083 c16 -21 308 -427 648 -903 341 -476 661 -923 712 -994 51 -70 95 -135 98 -143 4 -10 10 -6 23 15 10 16 145 206 301 423 155 217 378 527 494 689 116 162 316 441 444 619 206 287 253 359 209 324 -7 -6 -343 -198 -746 -427 l-732 -417 -128 74 c-1304 758 -1336 777 -1346 777 -4 0 6 -17 23 -37z"/>
      </g>
    </g>
  </g>

  <!-- Title -->
  <text x="260" y="170" font-family="Inter, system-ui, -apple-system, sans-serif" font-size="50" font-weight="700" letter-spacing="-0.02em" fill="#ffffff">Ethereum Classic DAO</text>

  <!-- Subtitle -->
  <text x="260" y="220" font-family="Inter, system-ui, -apple-system, sans-serif" font-size="22" font-weight="400" fill="#9ca3af">Building Software &amp; Infrastructure for Global Adoption</text>

  <!-- Categories -->
  <text x="260" y="270" font-family="Inter, system-ui, -apple-system, sans-serif" font-size="18" font-weight="400" fill="#00ffae" fill-opacity="0.7">Core Clients · Ecosystem Infrastructure · Hashrate Incentives · Regulatory Compliance</text>

  <!-- Footer: CTA left, URL right -->
  <g transform="translate(100, 350)">
    <rect x="0" y="0" width="200" height="52" rx="26" fill="url(#btnGrad)"/>
    <text x="100" y="35" text-anchor="middle" font-family="Inter, system-ui, -apple-system, sans-serif" font-size="18" font-weight="600" fill="#0a0f10">Learn More</text>
  </g>
  <text x="100" y="450" font-family="Inter, system-ui, -apple-system, sans-serif" font-size="18" font-weight="400" fill="#6b7280">Wyoming DAO LLC — the largest Proof-of-Work smart contract platform.</text>
  <text x="1075" y="575" text-anchor="end" font-family="Inter, system-ui, -apple-system, sans-serif" font-size="18" font-weight="400" fill="#00ffae" fill-opacity="0.7">ethereumclassicdao.org</text>
  <rect x="0" y="625" width="1200" height="5" fill="#00ffae" opacity="0.6"/>
</svg>
