<svg xmlns="http://www.w3.org/2000/svg" viewBox="0 0 1200 630" fill="none">
  <!-- Background -->
  <rect width="1200" height="630" fill="#0a0f10"/>
  <!-- Subtle grid pattern -->
  <g stroke="#00ffae" stroke-opacity="0.04" stroke-width="1">
    <line x1="0" y1="0" x2="0" y2="630"/><line x1="60" y1="0" x2="60" y2="630"/>
    <line x1="120" y1="0" x2="120" y2="630"/><line x1="180" y1="0" x2="180" y2="630"/>
    <line x1="240" y1="0" x2="240" y2="630"/><line x1="300" y1="0" x2="300" y2="630"/>
    <line x1="360" y1="0" x2="360" y2="630"/><line x1="420" y1="0" x2="420" y2="630"/>
    <line x1="480" y1="0" x2="480" y2="630"/><line x1="540" y1="0" x2="540" y2="630"/>
    <line x1="600" y1="0" x2="600" y2="630"/><line x1="660" y1="0" x2="660" y2="630"/>
    <line x1="720" y1="0" x2="720" y2="630"/><line x1="780" y1="0" x2="780" y2="630"/>
    <line x1="840" y1="0" x2="840" y2="630"/><line x1="900" y1="0" x2="900" y2="630"/>
    <line x1="960" y1="0" x2="960" y2="630"/><line x1="1020" y1="0" x2="1020" y2="630"/>
    <line x1="1080" y1="0" x2="1080" y2="630"/><line x1="1140" y1="0" x2="1140" y2="630"/>
    <line x1="0" y1="60" x2="1200" y2="60"/><line x1="0" y1="120" x2="1200" y2="120"/>
    <line x1="0" y1="180" x2="1200" y2="180"/><line x1="0" y1="240" x2="1200" y2="240"/>
    <line x1="0" y1="300" x2="1200" y2="300"/><line x1="0" y1="360" x2="1200" y2="360"/>
    <line x1="0" y1="420" x2="1200" y2="420"/><line x1="0" y1="480" x2="1200" y2="480"/>
    <line x1="0" y1="540" x2="1200" y2="540"/><line x1="0" y1="600" x2="1200" y2="600"/>
  </g>
  <!-- Radial glow -->
  <radialGradient id="glow" cx="50%" cy="45%">
    <stop offset="0%" stop-color="#00ffae" stop-opacity="0.08"/>
    <stop offset="100%" stop-color="#00ffae" stop-opacity="0"/>
  </radialGradient>
  <rect width="1200" height="630" fill="url(#glow)"/>
  <!-- Torch icon (simplified, centered) -->
  <g transform="translate(555, 120) scale(1.4)">
    <path d="M29 38 L32 46 L35 38 Z" fill="#00ffae"/>
    <path d="M27 38 L29 36 L35 36 L37 38 Z" fill="#00ffae"/>
    <path d="M32 14 C26 22 24 28 27 34 L29 36 L35 36 L37 34 C40 28 38 22 32 14 Z" fill="#00ffae" fill-opacity="0.4"/>
    <path d="M32 18 C28 24 27 28 29 33 L32 36 L35 33 C37 28 36 24 32 18 Z" fill="#00ffae" fill-opacity="0.7"/>
    <path d="M32 22 C30 26 29.5 29 31 33 L32 35 L33 33 C34.5 29 34 26 32 22 Z" fill="#00ffae"/>
  </g>
  <!-- Title -->
  <text x="600" y="340" text-anchor="middle" font-family="Inter, system-ui, sans-serif" font-size="56" font-weight="700" letter-spacing="-0.02em" fill="#ffffff">OlympiaDAO</text>
  <!-- Subtitle -->
  <text x="600" y="395" text-anchor="middle" font-family="Inter, system-ui, sans-serif" font-size="24" font-weight="400" fill="#9ca3af">Sustainable Governance for Ethereum Classic</text>
  <!-- ECIP range -->
  <text x="600" y="445" text-anchor="middle" font-family="Inter, system-ui, sans-serif" font-size="18" font-weight="500" fill="#00ffae">ECIPs 1111 — 1122</text>
  <!-- Bottom border accent -->
  <rect x="0" y="625" width="1200" height="5" fill="#00ffae" opacity="0.6"/>
</svg>
